<svg xmlns="http://www.w3.org/2000/svg" class="css-11mvyer" viewBox="0 0 1536 450">
  <path stroke="#282828" stroke-linecap="square" stroke-linejoin="bevel" stroke-width="200" d="m100 356 43-217 43.1 237 43-339 43.1 169 43-29 43 138 43.1-257 43 228 43.1-140 43-17 43.1 121 43 70 43.1-263 43 114 43.1 210 44.6-312 43 141 43 140 43.1-166 40.8-88 43 48 45.4 219 43-319 43 253 43.1-163 43 13 43.1 15 43 154 43.1-61 43 158L1436 92"/>
  <path stroke="#d79921" stroke-linecap="square" stroke-linejoin="bevel" stroke-width="130" d="m100 356 43-217 43.1 237 43-339 43.1 169 43-29 43 138 43.1-257 43 228 43.1-140 43-17 43.1 121 43 70 43.1-263 43 114 43.1 210 44.6-312 43 141 43 140 43.1-166 40.8-88 43 48 45.4 219 43-319 43 253 43.1-163 43 13 43.1 15 43 154 43.1-61 43 158L1436 92"/>
</svg>
