<svg width="237" height="81" viewBox="0 0 237 81" fill="none" xmlns="http://www.w3.org/2000/svg">
<path d="M0 23.1186C0 21.6677 1.19536 20.4915 2.6699 20.4915H10.6796C12.1542 20.4915 13.3495 21.6677 13.3495 23.1186V59.3729C13.3495 60.8238 12.1542 62 10.6796 62H2.6699C1.19536 62 0 60.8238 0 59.3729V23.1186Z" fill="#D79921"/>
<path d="M20.8252 2.62712C20.8252 1.1762 22.0206 0 23.4951 0H31.5049C32.9794 0 34.1748 1.1762 34.1748 2.62712V59.3729C34.1748 60.8238 32.9794 62 31.5049 62H23.4951C22.0206 62 20.8252 60.8238 20.8252 59.3729V2.62712Z" fill="#D79921"/>
<path d="M41.6505 37.3051C41.6505 35.8542 42.8458 34.678 44.3204 34.678H52.3301C53.8046 34.678 55 35.8542 55 37.3051V59.3729C55 60.8238 53.8046 62 52.3301 62H44.3204C42.8458 62 41.6505 60.8238 41.6505 59.3729V37.3051Z" fill="#D79921"/>
<path d="M72.3711 35.5234C72.3711 34.8594 72.1367 34.3516 71.668 34C71.1992 33.6406 70.3555 33.2656 69.1367 32.875C67.918 32.4766 66.9531 32.0859 66.2422 31.7031C64.3047 30.6562 63.3359 29.2461 63.3359 27.4727C63.3359 26.5508 63.5938 25.7305 64.1094 25.0117C64.6328 24.2852 65.3789 23.7188 66.3477 23.3125C67.3242 22.9062 68.418 22.7031 69.6289 22.7031C70.8477 22.7031 71.9336 22.9258 72.8867 23.3711C73.8398 23.8086 74.5781 24.4297 75.1016 25.2344C75.6328 26.0391 75.8984 26.9531 75.8984 27.9766H72.3828C72.3828 27.1953 72.1367 26.5898 71.6445 26.1602C71.1523 25.7227 70.4609 25.5039 69.5703 25.5039C68.7109 25.5039 68.043 25.6875 67.5664 26.0547C67.0898 26.4141 66.8516 26.8906 66.8516 27.4844C66.8516 28.0391 67.1289 28.5039 67.6836 28.8789C68.2461 29.2539 69.0703 29.6055 70.1562 29.9336C72.1562 30.5352 73.6133 31.2812 74.5273 32.1719C75.4414 33.0625 75.8984 34.1719 75.8984 35.5C75.8984 36.9766 75.3398 38.1367 74.2227 38.9805C73.1055 39.8164 71.6016 40.2344 69.7109 40.2344C68.3984 40.2344 67.2031 39.9961 66.125 39.5195C65.0469 39.0352 64.2227 38.375 63.6523 37.5391C63.0898 36.7031 62.8086 35.7344 62.8086 34.6328H66.3359C66.3359 36.5156 67.4609 37.457 69.7109 37.457C70.5469 37.457 71.1992 37.2891 71.668 36.9531C72.1367 36.6094 72.3711 36.1328 72.3711 35.5234ZM92.3047 31.8555C92.3047 33.5352 92.0078 35.0078 91.4141 36.2734C90.8203 37.5391 89.9688 38.5156 88.8594 39.2031C87.7578 39.8906 86.4922 40.2344 85.0625 40.2344C83.6484 40.2344 82.3867 39.8945 81.2773 39.2148C80.168 38.5352 79.3086 37.5664 78.6992 36.3086C78.0898 35.043 77.7812 33.5898 77.7734 31.9492V31.1055C77.7734 29.4258 78.0742 27.9492 78.6758 26.6758C79.2852 25.3945 80.1406 24.4141 81.2422 23.7344C82.3516 23.0469 83.6172 22.7031 85.0391 22.7031C86.4609 22.7031 87.7227 23.0469 88.8242 23.7344C89.9336 24.4141 90.7891 25.3945 91.3906 26.6758C92 27.9492 92.3047 29.4219 92.3047 31.0938V31.8555ZM88.7422 31.082C88.7422 29.293 88.4219 27.9336 87.7812 27.0039C87.1406 26.0742 86.2266 25.6094 85.0391 25.6094C83.8594 25.6094 82.9492 26.0703 82.3086 26.9922C81.668 27.9062 81.3438 29.25 81.3359 31.0234V31.8555C81.3359 33.5977 81.6562 34.9492 82.2969 35.9102C82.9375 36.8711 83.8594 37.3516 85.0625 37.3516C86.2422 37.3516 87.1484 36.8906 87.7812 35.9688C88.4141 35.0391 88.7344 33.6875 88.7422 31.9141V31.082ZM101.176 33.7539H98.375V40H94.8594V22.9375H101.199C103.215 22.9375 104.77 23.3867 105.863 24.2852C106.957 25.1836 107.504 26.4531 107.504 28.0938C107.504 29.2578 107.25 30.2305 106.742 31.0117C106.242 31.7852 105.48 32.4023 104.457 32.8633L108.148 39.8359V40H104.375L101.176 33.7539ZM98.375 30.9062H101.211C102.094 30.9062 102.777 30.6836 103.262 30.2383C103.746 29.7852 103.988 29.1641 103.988 28.375C103.988 27.5703 103.758 26.9375 103.297 26.4766C102.844 26.0156 102.145 25.7852 101.199 25.7852H98.375V30.9062ZM122.445 25.7852H117.219V40H113.703V25.7852H108.547V22.9375H122.445V25.7852ZM128.199 40H124.684V22.9375H128.199V40ZM145.344 40H141.828L134.984 28.7734V40H131.469V22.9375H134.984L141.84 34.1875V22.9375H145.344V40ZM161.914 37.8438C161.281 38.6016 160.387 39.1914 159.23 39.6133C158.074 40.0273 156.793 40.2344 155.387 40.2344C153.91 40.2344 152.613 39.9141 151.496 39.2734C150.387 38.625 149.527 37.6875 148.918 36.4609C148.316 35.2344 148.008 33.793 147.992 32.1367V30.9766C147.992 29.2734 148.277 27.8008 148.848 26.5586C149.426 25.3086 150.254 24.3555 151.332 23.6992C152.418 23.0352 153.688 22.7031 155.141 22.7031C157.164 22.7031 158.746 23.1875 159.887 24.1562C161.027 25.1172 161.703 26.5195 161.914 28.3633H158.492C158.336 27.3867 157.988 26.6719 157.449 26.2188C156.918 25.7656 156.184 25.5391 155.246 25.5391C154.051 25.5391 153.141 25.9883 152.516 26.8867C151.891 27.7852 151.574 29.1211 151.566 30.8945V31.9844C151.566 33.7734 151.906 35.125 152.586 36.0391C153.266 36.9531 154.262 37.4102 155.574 37.4102C156.895 37.4102 157.836 37.1289 158.398 36.5664V33.625H155.199V31.0352H161.914V37.8438Z" fill="#EBDBB2"/>
<path d="M69.8281 55.7695L73.6953 42.9375H77.6094L71.668 60H68L62.082 42.9375H65.9844L69.8281 55.7695ZM82.9648 60H79.4492V42.9375H82.9648V60ZM95.082 55.5234C95.082 54.8594 94.8477 54.3516 94.3789 54C93.9102 53.6406 93.0664 53.2656 91.8477 52.875C90.6289 52.4766 89.6641 52.0859 88.9531 51.7031C87.0156 50.6562 86.0469 49.2461 86.0469 47.4727C86.0469 46.5508 86.3047 45.7305 86.8203 45.0117C87.3438 44.2852 88.0898 43.7188 89.0586 43.3125C90.0352 42.9062 91.1289 42.7031 92.3398 42.7031C93.5586 42.7031 94.6445 42.9258 95.5977 43.3711C96.5508 43.8086 97.2891 44.4297 97.8125 45.2344C98.3438 46.0391 98.6094 46.9531 98.6094 47.9766H95.0938C95.0938 47.1953 94.8477 46.5898 94.3555 46.1602C93.8633 45.7227 93.1719 45.5039 92.2812 45.5039C91.4219 45.5039 90.7539 45.6875 90.2773 46.0547C89.8008 46.4141 89.5625 46.8906 89.5625 47.4844C89.5625 48.0391 89.8398 48.5039 90.3945 48.8789C90.957 49.2539 91.7812 49.6055 92.8672 49.9336C94.8672 50.5352 96.3242 51.2812 97.2383 52.1719C98.1523 53.0625 98.6094 54.1719 98.6094 55.5C98.6094 56.9766 98.0508 58.1367 96.9336 58.9805C95.8164 59.8164 94.3125 60.2344 92.4219 60.2344C91.1094 60.2344 89.9141 59.9961 88.8359 59.5195C87.7578 59.0352 86.9336 58.375 86.3633 57.5391C85.8008 56.7031 85.5195 55.7344 85.5195 54.6328H89.0469C89.0469 56.5156 90.1719 57.457 92.4219 57.457C93.2578 57.457 93.9102 57.2891 94.3789 56.9531C94.8477 56.6094 95.082 56.1328 95.082 55.5234ZM113.914 42.9375V54.1758C113.914 56.043 113.328 57.5195 112.156 58.6055C110.992 59.6914 109.398 60.2344 107.375 60.2344C105.383 60.2344 103.801 59.707 102.629 58.6523C101.457 57.5977 100.859 56.1484 100.836 54.3047V42.9375H104.352V54.1992C104.352 55.3164 104.617 56.1328 105.148 56.6484C105.688 57.1562 106.43 57.4102 107.375 57.4102C109.352 57.4102 110.355 56.3711 110.387 54.293V42.9375H113.914ZM126.172 56.4844H120.008L118.836 60H115.098L121.449 42.9375H124.707L131.094 60H127.355L126.172 56.4844ZM120.957 53.6367H125.223L123.078 47.25L120.957 53.6367ZM136.203 57.1758H143.668V60H132.688V42.9375H136.203V57.1758ZM149.434 60H145.918V42.9375H149.434V60ZM156.43 57.1758H165.031V60H152.035V57.9375L160.473 45.7852H152.047V42.9375H164.844V44.9531L156.43 57.1758ZM177.523 52.6055H170.773V57.1758H178.695V60H167.258V42.9375H178.672V45.7852H170.773V49.8516H177.523V52.6055ZM187.074 53.7539H184.273V60H180.758V42.9375H187.098C189.113 42.9375 190.668 43.3867 191.762 44.2852C192.855 45.1836 193.402 46.4531 193.402 48.0938C193.402 49.2578 193.148 50.2305 192.641 51.0117C192.141 51.7852 191.379 52.4023 190.355 52.8633L194.047 59.8359V60H190.273L187.074 53.7539ZM184.273 50.9062H187.109C187.992 50.9062 188.676 50.6836 189.16 50.2383C189.645 49.7852 189.887 49.1641 189.887 48.375C189.887 47.5703 189.656 46.9375 189.195 46.4766C188.742 46.0156 188.043 45.7852 187.098 45.7852H184.273V50.9062ZM196.039 58.3359C196.039 57.7969 196.219 57.3594 196.578 57.0234C196.945 56.6875 197.402 56.5195 197.949 56.5195C198.504 56.5195 198.961 56.6875 199.32 57.0234C199.688 57.3594 199.871 57.7969 199.871 58.3359C199.871 58.8672 199.691 59.3008 199.332 59.6367C198.973 59.9648 198.512 60.1289 197.949 60.1289C197.395 60.1289 196.938 59.9648 196.578 59.6367C196.219 59.3008 196.039 58.8672 196.039 58.3359Z" fill="#EBDBB2"/>
</svg>
